<svg xmlns="http://www.w3.org/2000/svg" viewBox="0 0 100 140" role="img" aria-label="0p">
  <defs>
    <linearGradient id="bg" x1="0" y1="0" x2="1" y2="1">
      <stop offset="0" stop-color="#ffffff"/>
      <stop offset="0.5" stop-color="#f8f9fc"/>
      <stop offset="1" stop-color="#e8edf5"/>
    </linearGradient>
    <linearGradient id="gloss" x1="0" y1="0" x2="0" y2="1">
      <stop offset="0" stop-color="rgba(255,255,255,0.72)"/>
      <stop offset="1" stop-color="rgba(255,255,255,0)"/>
    </linearGradient>
    <radialGradient id="redCore" cx="36%" cy="34%" r="72%">
      <stop offset="0" stop-color="#fff1ec"/>
      <stop offset="0.34" stop-color="#f08f80"/>
      <stop offset="0.7" stop-color="#d64030"/>
      <stop offset="1" stop-color="#771913"/>
    </radialGradient>
    <radialGradient id="greenCore" cx="36%" cy="34%" r="72%">
      <stop offset="0" stop-color="#f6fff8"/>
      <stop offset="0.28" stop-color="#91d5a2"/>
      <stop offset="0.72" stop-color="#2b8f59"/>
      <stop offset="1" stop-color="#175235"/>
    </radialGradient>
    <radialGradient id="blueCore" cx="36%" cy="34%" r="72%">
      <stop offset="0" stop-color="#f6fbff"/>
      <stop offset="0.28" stop-color="#7eacde"/>
      <stop offset="0.72" stop-color="#2a6197"/>
      <stop offset="1" stop-color="#163958"/>
    </radialGradient>
  </defs>
  <rect x="2" y="2" width="96" height="136" rx="10" fill="url(#bg)" stroke="#d8dee8" stroke-width="2"/>
  <rect x="8" y="8" width="84" height="42" rx="8" fill="url(#gloss)"/>

  <circle cx="31" cy="41" r="9.4" fill="url(#blueCore)" stroke="#224f7d" stroke-width="1.45"/>
  <circle cx="28.7" cy="38.7" r="3.1" fill="#eef8ff" opacity="0.86"/>

  <circle cx="69" cy="41" r="9.4" fill="url(#greenCore)" stroke="#1f6642" stroke-width="1.45"/>
  <circle cx="66.7" cy="38.7" r="3.1" fill="#f5fff7" opacity="0.84"/>

  <circle cx="50" cy="70" r="14.2" fill="url(#redCore)" stroke="#8a251e" stroke-width="1.8"/>
  <circle cx="50" cy="70" r="10.2" fill="none" stroke="#d6b36f" stroke-width="1.5" opacity="0.8"/>
  <circle cx="50" cy="70" r="5.1" fill="none" stroke="#f8d9cf" stroke-width="1.4" opacity="0.94"/>
  <circle cx="46.7" cy="66.7" r="4.1" fill="#fff2ed" opacity="0.42"/>
  <path d="M44 58l6-7 6 7" fill="none" stroke="#b89a5e" stroke-width="1.5" stroke-linecap="round" stroke-linejoin="round" opacity="0.72"/>
  <path d="M44 82l6 7 6-7" fill="none" stroke="#b89a5e" stroke-width="1.5" stroke-linecap="round" stroke-linejoin="round" opacity="0.72"/>

  <circle cx="31" cy="99" r="9.4" fill="url(#blueCore)" stroke="#224f7d" stroke-width="1.45"/>
  <circle cx="28.7" cy="96.7" r="3.1" fill="#eef8ff" opacity="0.86"/>

  <circle cx="69" cy="99" r="9.4" fill="url(#greenCore)" stroke="#1f6642" stroke-width="1.45"/>
  <circle cx="66.7" cy="96.7" r="3.1" fill="#f5fff7" opacity="0.84"/>

  <circle cx="50" cy="120" r="6" fill="#c6a157" opacity="0.34"/>
  <text x="50" y="122.8" text-anchor="middle" font-size="7.5" font-weight="800" fill="#97231f" font-family="Noto Serif SC, serif">赤</text>
</svg>
