<svg xmlns="http://www.w3.org/2000/svg" viewBox="0 0 100 140" role="img" aria-label="0s">
  <defs>
    <linearGradient id="bg" x1="0" y1="0" x2="1" y2="1">
      <stop offset="0" stop-color="#ffffff"/>
      <stop offset="0.5" stop-color="#f8f9fc"/>
      <stop offset="1" stop-color="#e8edf5"/>
    </linearGradient>
    <linearGradient id="gloss" x1="0" y1="0" x2="0" y2="1">
      <stop offset="0" stop-color="rgba(255,255,255,0.72)"/>
      <stop offset="1" stop-color="rgba(255,255,255,0)"/>
    </linearGradient>
    <linearGradient id="redStem" x1="0" y1="0" x2="0" y2="1">
      <stop offset="0" stop-color="#f6b5ab"/>
      <stop offset="0.58" stop-color="#d54b43"/>
      <stop offset="1" stop-color="#7a231b"/>
    </linearGradient>
  </defs>
  <rect x="2" y="2" width="96" height="136" rx="10" fill="url(#bg)" stroke="#d8dee8" stroke-width="2"/>
  <rect x="8" y="8" width="84" height="42" rx="8" fill="url(#gloss)"/>

  <rect x="28.8" y="33" width="7.4" height="22" rx="3.2" fill="#2d8f60" stroke="#1a5c3d" stroke-width="1.1"/>
  <rect x="27.2" y="37.3" width="10.4" height="2.7" rx="1.3" fill="#b4e6ca" opacity="0.36"/>
  <rect x="27.2" y="47.2" width="10.4" height="2.7" rx="1.3" fill="#b4e6ca" opacity="0.36"/>

  <rect x="63.8" y="33" width="7.4" height="22" rx="3.2" fill="#42a977" stroke="#226a4a" stroke-width="1.1"/>
  <rect x="62.2" y="37.3" width="10.4" height="2.7" rx="1.3" fill="#d2f1df" opacity="0.34"/>
  <rect x="62.2" y="47.2" width="10.4" height="2.7" rx="1.3" fill="#d2f1df" opacity="0.34"/>

  <rect x="45.6" y="53" width="8.8" height="33" rx="3.8" fill="url(#redStem)" stroke="#8e2a24" stroke-width="1.3"/>
  <rect x="43.7" y="59.2" width="12.6" height="3" rx="1.4" fill="#f5c2bd" opacity="0.44"/>
  <rect x="43.7" y="74.8" width="12.6" height="3" rx="1.4" fill="#f5c2bd" opacity="0.44"/>
  <path d="M49.9 46c7 3 11 7 11 13 0 7-5.6 10.4-11 12.8-5.4-2.4-11-5.8-11-12.8 0-6 4-10 11-13z" fill="none" stroke="#c7a35a" stroke-width="1.6" opacity="0.68"/>

  <rect x="28.8" y="87" width="7.4" height="22" rx="3.2" fill="#42a977" stroke="#226a4a" stroke-width="1.1"/>
  <rect x="27.2" y="91.3" width="10.4" height="2.7" rx="1.3" fill="#d2f1df" opacity="0.34"/>
  <rect x="27.2" y="101.2" width="10.4" height="2.7" rx="1.3" fill="#d2f1df" opacity="0.34"/>

  <rect x="63.8" y="87" width="7.4" height="22" rx="3.2" fill="#2d8f60" stroke="#1a5c3d" stroke-width="1.1"/>
  <rect x="62.2" y="91.3" width="10.4" height="2.7" rx="1.3" fill="#b4e6ca" opacity="0.36"/>
  <rect x="62.2" y="101.2" width="10.4" height="2.7" rx="1.3" fill="#b4e6ca" opacity="0.36"/>

  <circle cx="50" cy="120" r="6" fill="#c6a157" opacity="0.34"/>
  <text x="50" y="122.8" text-anchor="middle" font-size="7.5" font-weight="800" fill="#97231f" font-family="Noto Serif SC, serif">赤</text>
</svg>
