<svg xmlns="http://www.w3.org/2000/svg" viewBox="0 0 100 140" role="img" aria-label="1s">
  <defs>
    <linearGradient id="bg" x1="0" y1="0" x2="1" y2="1">
      <stop offset="0" stop-color="#ffffff"/>
      <stop offset="0.5" stop-color="#f8f9fc"/>
      <stop offset="1" stop-color="#e8edf5"/>
    </linearGradient>
    <linearGradient id="gloss" x1="0" y1="0" x2="0" y2="1">
      <stop offset="0" stop-color="rgba(255,255,255,0.72)"/>
      <stop offset="1" stop-color="rgba(255,255,255,0)"/>
    </linearGradient>
  </defs>
  <rect x="2" y="2" width="96" height="136" rx="10" fill="url(#bg)" stroke="#d8dee8" stroke-width="2"/>
  <rect x="8" y="8" width="84" height="42" rx="8" fill="url(#gloss)"/>
  
  <path d="M52 56C44 54 36 47 33 38C42 40 49 45 54 52Z" fill="#2d8f60"/>
  <path d="M47 64C38 68 32 77 31 88C40 85 46 81 50 74Z" fill="#2c7bc0"/>
  <ellipse cx="52" cy="72" rx="11" ry="18" fill="#2f9a69"/>
  <ellipse cx="51" cy="73" rx="7.2" ry="11.5" fill="#27905f"/>
  <circle cx="59" cy="48" r="6.8" fill="#d74a43"/>
  <circle cx="60.8" cy="46.8" r="1.4" fill="#1f2430"/>
  <path d="M64 49L72 51.8L64 54.4Z" fill="#dca33c"/>
  <path d="M57 41C55 38 54 35 55 31C58 32 60 35 60 39Z" fill="#d74a43"/>
  <path d="M42 84L36 91" stroke="#2f7bc0" stroke-width="3.2" stroke-linecap="round"/>
  <path d="M46 87L38 96" stroke="#2f7bc0" stroke-width="3.2" stroke-linecap="round"/>
  <path d="M50 88L42 99" stroke="#31a06f" stroke-width="3.2" stroke-linecap="round"/>
  <path d="M47 91L52 105" stroke="#dca33c" stroke-width="2.6" stroke-linecap="round"/>
  <path d="M55 91L58 105" stroke="#dca33c" stroke-width="2.6" stroke-linecap="round"/>
  <path d="M45 103H51" stroke="#dca33c" stroke-width="2.4" stroke-linecap="round"/>
  <path d="M55 103H61" stroke="#dca33c" stroke-width="2.4" stroke-linecap="round"/>


</svg>