<svg xmlns="http://www.w3.org/2000/svg" viewBox="0 0 100 140" role="img" aria-label="4s">
  <defs>
    <linearGradient id="bg" x1="0" y1="0" x2="1" y2="1">
      <stop offset="0" stop-color="#ffffff"/>
      <stop offset="0.5" stop-color="#f8f9fc"/>
      <stop offset="1" stop-color="#e8edf5"/>
    </linearGradient>
    <linearGradient id="gloss" x1="0" y1="0" x2="0" y2="1">
      <stop offset="0" stop-color="rgba(255,255,255,0.72)"/>
      <stop offset="1" stop-color="rgba(255,255,255,0)"/>
    </linearGradient>
  </defs>
  <rect x="2" y="2" width="96" height="136" rx="10" fill="url(#bg)" stroke="#d8dee8" stroke-width="2"/>
  <rect x="8" y="8" width="84" height="42" rx="8" fill="url(#gloss)"/>
  
  <rect x="30.5" y="35" width="7" height="22" rx="3.2" fill="#2f8f5b" stroke="#1c593a" stroke-width="1.1"/>
  <rect x="29.0" y="39.5" width="10" height="2.8" rx="1.3" fill="#a7e0be" opacity="0.38"/>
  <rect x="29.0" y="49.8" width="10" height="2.8" rx="1.3" fill="#a7e0be" opacity="0.38"/>

  <rect x="62.5" y="35" width="7" height="22" rx="3.2" fill="#3fa56f" stroke="#226648" stroke-width="1.1"/>
  <rect x="61.0" y="39.5" width="10" height="2.8" rx="1.3" fill="#c8edd8" opacity="0.38"/>
  <rect x="61.0" y="49.8" width="10" height="2.8" rx="1.3" fill="#c8edd8" opacity="0.38"/>

  <rect x="30.5" y="83" width="7" height="22" rx="3.2" fill="#2f8f5b" stroke="#1c593a" stroke-width="1.1"/>
  <rect x="29.0" y="87.5" width="10" height="2.8" rx="1.3" fill="#a7e0be" opacity="0.38"/>
  <rect x="29.0" y="97.8" width="10" height="2.8" rx="1.3" fill="#a7e0be" opacity="0.38"/>

  <rect x="62.5" y="83" width="7" height="22" rx="3.2" fill="#3fa56f" stroke="#226648" stroke-width="1.1"/>
  <rect x="61.0" y="87.5" width="10" height="2.8" rx="1.3" fill="#c8edd8" opacity="0.38"/>
  <rect x="61.0" y="97.8" width="10" height="2.8" rx="1.3" fill="#c8edd8" opacity="0.38"/>


</svg>