<svg xmlns="http://www.w3.org/2000/svg" viewBox="0 0 100 140" role="img" aria-label="5s">
  <defs>
    <linearGradient id="bg" x1="0" y1="0" x2="1" y2="1">
      <stop offset="0" stop-color="#ffffff"/>
      <stop offset="0.5" stop-color="#f8f9fc"/>
      <stop offset="1" stop-color="#e8edf5"/>
    </linearGradient>
    <linearGradient id="gloss" x1="0" y1="0" x2="0" y2="1">
      <stop offset="0" stop-color="rgba(255,255,255,0.72)"/>
      <stop offset="1" stop-color="rgba(255,255,255,0)"/>
    </linearGradient>
  </defs>
  <rect x="2" y="2" width="96" height="136" rx="10" fill="url(#bg)" stroke="#d8dee8" stroke-width="2"/>
  <rect x="8" y="8" width="84" height="42" rx="8" fill="url(#gloss)"/>
  
  <rect x="29.5" y="34" width="7.2" height="21" rx="3.2" fill="#2d8f60" stroke="#1a5c3d" stroke-width="1.1"/>
  <rect x="28.0" y="38.2" width="10.2" height="2.6" rx="1.3" fill="#b4e6ca" opacity="0.36"/>
  <rect x="28.0" y="48.0" width="10.2" height="2.6" rx="1.3" fill="#b4e6ca" opacity="0.36"/>

  <rect x="63.3" y="34" width="7.2" height="21" rx="3.2" fill="#42a977" stroke="#226a4a" stroke-width="1.1"/>
  <rect x="61.8" y="38.2" width="10.2" height="2.6" rx="1.3" fill="#d2f1df" opacity="0.34"/>
  <rect x="61.8" y="48.0" width="10.2" height="2.6" rx="1.3" fill="#d2f1df" opacity="0.34"/>

  <rect x="45.8" y="56" width="8.4" height="26" rx="3.6" fill="#d64a43" stroke="#8e2a24" stroke-width="1.25"/>
  <rect x="44.0" y="61.2" width="12.0" height="2.8" rx="1.4" fill="#f5c2bd" opacity="0.42"/>
  <rect x="44.0" y="73.2" width="12.0" height="2.8" rx="1.4" fill="#f5c2bd" opacity="0.42"/>

  <rect x="29.5" y="85" width="7.2" height="21" rx="3.2" fill="#42a977" stroke="#226a4a" stroke-width="1.1"/>
  <rect x="28.0" y="89.2" width="10.2" height="2.6" rx="1.3" fill="#d2f1df" opacity="0.34"/>
  <rect x="28.0" y="99.0" width="10.2" height="2.6" rx="1.3" fill="#d2f1df" opacity="0.34"/>

  <rect x="63.3" y="85" width="7.2" height="21" rx="3.2" fill="#2d8f60" stroke="#1a5c3d" stroke-width="1.1"/>
  <rect x="61.8" y="89.2" width="10.2" height="2.6" rx="1.3" fill="#b4e6ca" opacity="0.36"/>
  <rect x="61.8" y="99.0" width="10.2" height="2.6" rx="1.3" fill="#b4e6ca" opacity="0.36"/>


</svg>