<svg xmlns="http://www.w3.org/2000/svg" viewBox="0 0 100 140" role="img" aria-label="7p">
  <defs>
    <linearGradient id="bg" x1="0" y1="0" x2="1" y2="1">
      <stop offset="0" stop-color="#ffffff"/>
      <stop offset="0.5" stop-color="#f8f9fc"/>
      <stop offset="1" stop-color="#e8edf5"/>
    </linearGradient>
    <linearGradient id="gloss" x1="0" y1="0" x2="0" y2="1">
      <stop offset="0" stop-color="rgba(255,255,255,0.72)"/>
      <stop offset="1" stop-color="rgba(255,255,255,0)"/>
    </linearGradient>
  </defs>
  <rect x="2" y="2" width="96" height="136" rx="10" fill="url(#bg)" stroke="#d8dee8" stroke-width="2"/>
  <rect x="8" y="8" width="84" height="42" rx="8" fill="url(#gloss)"/>
  
  <circle cx="50" cy="31" r="9.2" fill="#41aa73" stroke="#1f6642" stroke-width="1.45"/>
  <circle cx="47.7" cy="28.7" r="3.2" fill="#f5fff7" opacity="0.82"/>

  <circle cx="26" cy="63" r="9.2" fill="#41aa73" stroke="#1f6642" stroke-width="1.45"/>
  <circle cx="23.7" cy="60.7" r="3.2" fill="#f5fff7" opacity="0.82"/>

  <circle cx="50" cy="63" r="9.3" fill="#d7443c" stroke="#8a261f" stroke-width="1.5"/>
  <circle cx="47.7" cy="60.7" r="3.1" fill="#f8d8d2" opacity="0.88"/>

  <circle cx="74" cy="63" r="9.2" fill="#428fd6" stroke="#1a4d78" stroke-width="1.45"/>
  <circle cx="71.7" cy="60.7" r="3.2" fill="#eef8ff" opacity="0.86"/>

  <circle cx="26" cy="101" r="9.2" fill="#41aa73" stroke="#1f6642" stroke-width="1.45"/>
  <circle cx="23.7" cy="98.7" r="3.2" fill="#f5fff7" opacity="0.82"/>

  <circle cx="50" cy="101" r="9.2" fill="#428fd6" stroke="#1a4d78" stroke-width="1.45"/>
  <circle cx="47.7" cy="98.7" r="3.2" fill="#eef8ff" opacity="0.86"/>

  <circle cx="74" cy="101" r="9.2" fill="#41aa73" stroke="#1f6642" stroke-width="1.45"/>
  <circle cx="71.7" cy="98.7" r="3.2" fill="#f5fff7" opacity="0.82"/>


</svg>