<svg xmlns="http://www.w3.org/2000/svg" viewBox="0 0 100 140" role="img" aria-label="7s">
  <defs>
    <linearGradient id="bg" x1="0" y1="0" x2="1" y2="1">
      <stop offset="0" stop-color="#ffffff"/>
      <stop offset="0.5" stop-color="#f8f9fc"/>
      <stop offset="1" stop-color="#e8edf5"/>
    </linearGradient>
    <linearGradient id="gloss" x1="0" y1="0" x2="0" y2="1">
      <stop offset="0" stop-color="rgba(255,255,255,0.72)"/>
      <stop offset="1" stop-color="rgba(255,255,255,0)"/>
    </linearGradient>
  </defs>
  <rect x="2" y="2" width="96" height="136" rx="10" fill="url(#bg)" stroke="#d8dee8" stroke-width="2"/>
  <rect x="8" y="8" width="84" height="42" rx="8" fill="url(#gloss)"/>
  
  <rect x="46.2" y="19" width="7.6" height="23" rx="3.3" fill="#d64a43" stroke="#8e2a24" stroke-width="1.2"/>
  <rect x="44.6" y="23.6" width="10.8" height="2.9" rx="1.35" fill="#f5c2bd" opacity="0.42"/>
  <rect x="44.6" y="34.2" width="10.8" height="2.9" rx="1.35" fill="#f5c2bd" opacity="0.42"/>

  <rect x="18.2" y="55" width="7.6" height="23" rx="3.3" fill="#2f8f5b" stroke="#1c593a" stroke-width="1.15"/>
  <rect x="16.6" y="59.6" width="10.8" height="2.9" rx="1.35" fill="#a7e0be" opacity="0.38"/>
  <rect x="16.6" y="70.2" width="10.8" height="2.9" rx="1.35" fill="#a7e0be" opacity="0.38"/>

  <rect x="46.2" y="55" width="7.6" height="23" rx="3.3" fill="#3fa56f" stroke="#226648" stroke-width="1.15"/>
  <rect x="44.6" y="59.6" width="10.8" height="2.9" rx="1.35" fill="#c8edd8" opacity="0.38"/>
  <rect x="44.6" y="70.2" width="10.8" height="2.9" rx="1.35" fill="#c8edd8" opacity="0.38"/>

  <rect x="74.2" y="55" width="7.6" height="23" rx="3.3" fill="#2f8f5b" stroke="#1c593a" stroke-width="1.15"/>
  <rect x="72.6" y="59.6" width="10.8" height="2.9" rx="1.35" fill="#a7e0be" opacity="0.38"/>
  <rect x="72.6" y="70.2" width="10.8" height="2.9" rx="1.35" fill="#a7e0be" opacity="0.38"/>

  <rect x="18.2" y="91" width="7.6" height="23" rx="3.3" fill="#3fa56f" stroke="#226648" stroke-width="1.15"/>
  <rect x="16.6" y="95.6" width="10.8" height="2.9" rx="1.35" fill="#c8edd8" opacity="0.38"/>
  <rect x="16.6" y="106.2" width="10.8" height="2.9" rx="1.35" fill="#c8edd8" opacity="0.38"/>

  <rect x="46.2" y="91" width="7.6" height="23" rx="3.3" fill="#2f8f5b" stroke="#1c593a" stroke-width="1.15"/>
  <rect x="44.6" y="95.6" width="10.8" height="2.9" rx="1.35" fill="#a7e0be" opacity="0.38"/>
  <rect x="44.6" y="106.2" width="10.8" height="2.9" rx="1.35" fill="#a7e0be" opacity="0.38"/>

  <rect x="74.2" y="91" width="7.6" height="23" rx="3.3" fill="#3fa56f" stroke="#226648" stroke-width="1.15"/>
  <rect x="72.6" y="95.6" width="10.8" height="2.9" rx="1.35" fill="#c8edd8" opacity="0.38"/>
  <rect x="72.6" y="106.2" width="10.8" height="2.9" rx="1.35" fill="#c8edd8" opacity="0.38"/>


</svg>