<svg xmlns="http://www.w3.org/2000/svg" viewBox="0 0 100 140" role="img" aria-label="8p">
  <defs>
    <linearGradient id="bg" x1="0" y1="0" x2="1" y2="1">
      <stop offset="0" stop-color="#ffffff"/>
      <stop offset="0.5" stop-color="#f8f9fc"/>
      <stop offset="1" stop-color="#e8edf5"/>
    </linearGradient>
    <linearGradient id="gloss" x1="0" y1="0" x2="0" y2="1">
      <stop offset="0" stop-color="rgba(255,255,255,0.72)"/>
      <stop offset="1" stop-color="rgba(255,255,255,0)"/>
    </linearGradient>
  </defs>
  <rect x="2" y="2" width="96" height="136" rx="10" fill="url(#bg)" stroke="#d8dee8" stroke-width="2"/>
  <rect x="8" y="8" width="84" height="42" rx="8" fill="url(#gloss)"/>
  
  <circle cx="34" cy="34" r="9.2" fill="#3ca56b" stroke="#1e5b3b" stroke-width="1.45"/>
  <circle cx="31.7" cy="31.7" r="3.2" fill="#f5fff7" opacity="0.85"/>

  <circle cx="66" cy="34" r="9.2" fill="#3ca56b" stroke="#1e5b3b" stroke-width="1.45"/>
  <circle cx="63.7" cy="31.7" r="3.2" fill="#f5fff7" opacity="0.85"/>

  <circle cx="34" cy="58" r="9.2" fill="#3c84c6" stroke="#1a466d" stroke-width="1.45"/>
  <circle cx="31.7" cy="55.7" r="3.2" fill="#eef8ff" opacity="0.85"/>

  <circle cx="66" cy="58" r="9.2" fill="#3ca56b" stroke="#1e5b3b" stroke-width="1.45"/>
  <circle cx="63.7" cy="55.7" r="3.2" fill="#f5fff7" opacity="0.85"/>

  <circle cx="34" cy="82" r="9.2" fill="#3ca56b" stroke="#1e5b3b" stroke-width="1.45"/>
  <circle cx="31.7" cy="79.7" r="3.2" fill="#f5fff7" opacity="0.85"/>

  <circle cx="66" cy="82" r="9.2" fill="#3c84c6" stroke="#1a466d" stroke-width="1.45"/>
  <circle cx="63.7" cy="79.7" r="3.2" fill="#eef8ff" opacity="0.85"/>

  <circle cx="34" cy="106" r="9.2" fill="#3ca56b" stroke="#1e5b3b" stroke-width="1.45"/>
  <circle cx="31.7" cy="103.7" r="3.2" fill="#f5fff7" opacity="0.85"/>

  <circle cx="66" cy="106" r="9.2" fill="#3ca56b" stroke="#1e5b3b" stroke-width="1.45"/>
  <circle cx="63.7" cy="103.7" r="3.2" fill="#f5fff7" opacity="0.85"/>


</svg>