<svg xmlns="http://www.w3.org/2000/svg" viewBox="0 0 100 140" role="img" aria-label="8s">
  <defs>
    <linearGradient id="bg" x1="0" y1="0" x2="1" y2="1">
      <stop offset="0" stop-color="#ffffff"/>
      <stop offset="0.5" stop-color="#f8f9fc"/>
      <stop offset="1" stop-color="#e8edf5"/>
    </linearGradient>
    <linearGradient id="gloss" x1="0" y1="0" x2="0" y2="1">
      <stop offset="0" stop-color="rgba(255,255,255,0.72)"/>
      <stop offset="1" stop-color="rgba(255,255,255,0)"/>
    </linearGradient>
  </defs>
  <rect x="2" y="2" width="96" height="136" rx="10" fill="url(#bg)" stroke="#d8dee8" stroke-width="2"/>
  <rect x="8" y="8" width="84" height="42" rx="8" fill="url(#gloss)"/>
  <g fill="#38a36b" stroke="#226648" stroke-width="1.15">
    <rect x="24.1" y="16" width="8.2" height="21" rx="3.3"/>
    <rect x="24.1" y="44" width="8.2" height="21" rx="3.3"/>
    <rect x="24.1" y="72" width="8.2" height="21" rx="3.3"/>
    <rect x="24.1" y="100" width="8.2" height="21" rx="3.3"/>
    <rect x="67.7" y="16" width="8.2" height="21" rx="3.3"/>
    <rect x="67.7" y="44" width="8.2" height="21" rx="3.3"/>
    <rect x="67.7" y="72" width="8.2" height="21" rx="3.3"/>
    <rect x="67.7" y="100" width="8.2" height="21" rx="3.3"/>
  </g>

  <g fill="#c8edd8" opacity="0.35">
    <rect x="22.3" y="20.2" width="11.8" height="2.7" rx="1.3"/>
    <rect x="22.3" y="28.6" width="11.8" height="2.7" rx="1.3"/>
    <rect x="22.3" y="48.2" width="11.8" height="2.7" rx="1.3"/>
    <rect x="22.3" y="56.6" width="11.8" height="2.7" rx="1.3"/>
    <rect x="22.3" y="76.2" width="11.8" height="2.7" rx="1.3"/>
    <rect x="22.3" y="84.6" width="11.8" height="2.7" rx="1.3"/>
    <rect x="22.3" y="104.2" width="11.8" height="2.7" rx="1.3"/>
    <rect x="22.3" y="112.6" width="11.8" height="2.7" rx="1.3"/>
    <rect x="65.9" y="20.2" width="11.8" height="2.7" rx="1.3"/>
    <rect x="65.9" y="28.6" width="11.8" height="2.7" rx="1.3"/>
    <rect x="65.9" y="48.2" width="11.8" height="2.7" rx="1.3"/>
    <rect x="65.9" y="56.6" width="11.8" height="2.7" rx="1.3"/>
    <rect x="65.9" y="76.2" width="11.8" height="2.7" rx="1.3"/>
    <rect x="65.9" y="84.6" width="11.8" height="2.7" rx="1.3"/>
    <rect x="65.9" y="104.2" width="11.8" height="2.7" rx="1.3"/>
    <rect x="65.9" y="112.6" width="11.8" height="2.7" rx="1.3"/>
  </g>
</svg>